<?xml version="1.0" encoding="UTF-8"?>
<svg xmlns="http://www.w3.org/2000/svg" xmlns:xlink="http://www.w3.org/1999/xlink" width="1788px" height="2500px" viewBox="0 0 1341 1875" version="1.1">
<g id="surface1">
<path style=" stroke:none;fill-rule:nonzero;fill:rgb(7.450981%,74.509805%,97.647059%);fill-opacity:1;" d="M 447.410156 412.21875 L 418.816406 412.21875 L 418.816406 560.34375 L 447.410156 560.34375 Z M 570.386719 412.21875 L 541.792969 412.21875 L 541.792969 560.34375 L 570.386719 560.34375 Z M 738.410156 129.539062 L 709.113281 78.726562 L 220.042969 361.40625 L 249.339844 412.21875 Z M 738.410156 129.539062 "/>
<path style=" stroke:none;fill-rule:nonzero;fill:rgb(7.450981%,74.509805%,97.647059%);fill-opacity:1;" d="M 735.550781 129.539062 L 764.871094 78.726562 L 1253.941406 361.40625 L 1224.621094 412.21875 Z M 735.550781 129.539062 "/>
<path style=" stroke:none;fill-rule:nonzero;fill:rgb(7.450981%,74.509805%,97.647059%);fill-opacity:1;" d="M 1340.472656 412.921875 L 1340.472656 354.257812 L 0.527344 354.257812 L 0.527344 412.921875 Z M 1340.472656 412.921875 "/>
<path style=" stroke:none;fill-rule:evenodd;fill:rgb(7.450981%,74.509805%,97.647059%);fill-opacity:1;" d="M 809.917969 1241.648438 L 809.917969 372.140625 L 868.558594 372.140625 L 868.558594 1283.882812 C 852.832031 1265.976562 832.792969 1253.109375 809.917969 1241.648438 Z M 709.816406 1226.625 L 709.816406 0 L 768.457031 0 L 768.457031 1233.773438 C 752.003906 1225.898438 711.972656 1226.625 709.816406 1226.625 Z M 154.253906 1348.992188 C 82.746094 1296.046875 35.566406 1211.601562 35.566406 1115.695312 C 35.566406 1064.882812 49.136719 1014.796875 74.167969 971.132812 L 574.675781 971.132812 C 600.410156 1014.796875 613.300781 1064.882812 613.300781 1115.695312 C 613.300781 1160.0625 607.582031 1201.570312 589.699219 1238.789062 C 551.800781 1202.296875 496.019531 1186.546875 439.535156 1186.546875 C 339.433594 1186.546875 253.628906 1248.796875 231.480469 1341.84375 C 223.605469 1341.117188 218.613281 1340.414062 210.738281 1340.414062 C 191.425781 1341.117188 172.839844 1344 154.253906 1348.992188 Z M 154.253906 1348.992188 "/>
<path style=" stroke:none;fill-rule:nonzero;fill:rgb(7.450981%,74.509805%,97.647059%);fill-opacity:1;" d="M 400.207031 626.203125 L 248.636719 626.203125 L 248.636719 778.617188 L 400.207031 778.617188 Z M 229.324219 626.203125 L 77.753906 626.203125 L 77.753906 778.617188 L 229.324219 778.617188 Z M 229.324219 795.796875 L 77.753906 795.796875 L 77.753906 948.234375 L 229.324219 948.234375 Z M 400.207031 795.796875 L 248.636719 795.796875 L 248.636719 948.234375 L 400.207031 948.234375 Z M 570.386719 795.796875 L 418.816406 795.796875 L 418.816406 948.234375 L 570.386719 948.234375 Z M 570.386719 544.617188 L 418.816406 544.617188 L 418.816406 697.03125 L 570.386719 697.03125 Z M 570.386719 544.617188 "/>
<path style=" stroke:none;fill-rule:evenodd;fill:rgb(7.450981%,74.509805%,97.647059%);fill-opacity:1;" d="M 256.488281 1371.890625 C 277.230469 1283.882812 356.589844 1218.023438 450.972656 1218.023438 C 511.769531 1218.023438 566.097656 1245.234375 603.292969 1288.171875 C 635.449219 1265.976562 674.074219 1253.109375 716.261719 1253.109375 C 826.371094 1253.109375 915.738281 1342.546875 915.738281 1452.773438 C 915.738281 1475.671875 912.175781 1497.140625 905.027344 1517.882812 C 929.332031 1550.8125 944.355469 1592.320312 944.355469 1636.6875 C 944.355469 1746.890625 854.964844 1836.351562 744.855469 1836.351562 C 696.222656 1836.351562 651.902344 1819.171875 617.589844 1790.554688 C 581.121094 1841.367188 521.777344 1875 454.558594 1875 C 377.332031 1875 310.113281 1830.632812 276.527344 1766.226562 C 262.933594 1769.085938 249.339844 1770.515625 235.042969 1770.515625 C 124.933594 1770.515625 34.839844 1681.054688 34.839844 1570.851562 C 34.839844 1460.648438 124.230469 1371.1875 235.042969 1371.1875 C 242.191406 1370.460938 249.339844 1370.460938 256.488281 1371.890625 Z M 256.488281 1371.890625 "/>
</g>
</svg>
